<svg xmlns="http://www.w3.org/2000/svg" viewBox="0 0 512 512" width="512" height="512">
  <!-- Square robotic head-fin / antenna with circuit dot -->
  <line x1="256" y1="105" x2="256" y2="78" stroke="black" stroke-width="4" stroke-linecap="round"/>
  <rect x="244" y="64" width="24" height="16" rx="2"
        fill="white" stroke="black" stroke-width="3"/>
  <circle cx="256" cy="72" r="3" fill="black"/>

  <!-- Unified egg-shaped body (head + body together, kawaii style) -->
  <ellipse cx="256" cy="285" rx="160" ry="180"
           fill="white" stroke="black" stroke-width="5"/>

  <!-- Side bolts (robot rivets) -->
  <circle cx="128" cy="270" r="5" fill="white" stroke="black" stroke-width="2.5"/>
  <line x1="124" y1="266" x2="132" y2="274" stroke="black" stroke-width="1.5"/>
  <line x1="132" y1="266" x2="124" y2="274" stroke="black" stroke-width="1.5"/>
  <circle cx="384" cy="270" r="5" fill="white" stroke="black" stroke-width="2.5"/>
  <line x1="380" y1="266" x2="388" y2="274" stroke="black" stroke-width="1.5"/>
  <line x1="388" y1="266" x2="380" y2="274" stroke="black" stroke-width="1.5"/>

  <!-- Tiny stubby arms on sides -->
  <ellipse cx="112" cy="310" rx="20" ry="44"
           fill="white" stroke="black" stroke-width="4"/>
  <ellipse cx="400" cy="310" rx="20" ry="44"
           fill="white" stroke="black" stroke-width="4"/>

  <!-- Big kawaii eyes (filled black ovals) -->
  <ellipse cx="216" cy="245" rx="32" ry="42" fill="black"/>
  <ellipse cx="296" cy="245" rx="32" ry="42" fill="black"/>

  <!-- Eye sparkle highlights -->
  <ellipse cx="224" cy="228" rx="10" ry="14" fill="white"/>
  <ellipse cx="304" cy="228" rx="10" ry="14" fill="white"/>
  <circle cx="208" cy="265" r="4" fill="white"/>
  <circle cx="288" cy="265" r="4" fill="white"/>

  <!-- Robot grid mouth -->
  <rect x="240" y="312" width="32" height="14" rx="2"
        fill="white" stroke="black" stroke-width="3"/>
  <line x1="248" y1="312" x2="248" y2="326" stroke="black" stroke-width="1.5"/>
  <line x1="256" y1="312" x2="256" y2="326" stroke="black" stroke-width="1.5"/>
  <line x1="264" y1="312" x2="264" y2="326" stroke="black" stroke-width="1.5"/>

  <!-- Cute oval blush with hatch lines -->
  <ellipse cx="148" cy="298" rx="16" ry="9" fill="none" stroke="black" stroke-width="2"/>
  <line x1="138" y1="298" x2="158" y2="298" stroke="black" stroke-width="1.5"/>
  <line x1="146" y1="293" x2="150" y2="303" stroke="black" stroke-width="1.5"/>
  <ellipse cx="364" cy="298" rx="16" ry="9" fill="none" stroke="black" stroke-width="2"/>
  <line x1="354" y1="298" x2="374" y2="298" stroke="black" stroke-width="1.5"/>
  <line x1="362" y1="293" x2="366" y2="303" stroke="black" stroke-width="1.5"/>

  <!-- Signature accessory: CODE block on body with </> -->
  <rect x="208" y="402" width="96" height="44" rx="6"
        fill="white" stroke="black" stroke-width="3"/>
  <text x="256" y="434" font-family="monospace" font-size="22" font-weight="bold"
        text-anchor="middle" fill="black">&lt;/&gt;</text>

  <!-- Stubby rounded feet -->
  <path d="M 218 458 Q 215 478 230 478 Q 244 478 244 460"
        fill="white" stroke="black" stroke-width="3" stroke-linejoin="round"/>
  <path d="M 268 460 Q 268 478 282 478 Q 297 478 294 458"
        fill="white" stroke="black" stroke-width="3" stroke-linejoin="round"/>
</svg>
